<svg class="svg-icon" style="width: 1em;height: 1em;vertical-align: middle;fill: currentColor;overflow: hidden;" viewBox="0 0 1024 1024" version="1.1" xmlns="http://www.w3.org/2000/svg"><path d="M512 0c282.77 0 512 229.23 512 512s-229.23 512-512 512S0 794.77 0 512 229.23 0 512 0z m-20.805 614.022c-138.924 9.879-249.13 117.9-254.416 251.494C312.723 924.727 408.242 960 512 960c103.75 0 199.264-35.268 275.206-94.47-5.267-133.42-115.182-241.333-253.84-251.467l0.002 0.013c-6.875 0.612-13.835 0.924-20.868 0.924-7.182 0-14.288-0.326-21.305-0.963v-0.015zM512 64C264.576 64 64 264.576 64 512c0 115.942 44.043 221.597 116.312 301.147 21.851-106.35 98.461-193.967 200.658-235.017l3.635-1.437-1.872-1.248C320.761 533.683 280 462.852 280 382.5 280 254.094 384.094 150 512.5 150S745 254.094 745 382.5c0 80.511-40.923 151.465-103.103 193.194l-1.878 1.246 3.659 1.455C745.548 619.556 821.879 707.03 843.68 813.15 915.953 733.606 960 627.947 960 512c0-247.424-200.576-448-448-448z m0.5 148.626c-93.819 0-169.874 76.055-169.874 169.874 0 93.819 76.055 169.874 169.874 169.874 93.819 0 169.874-76.055 169.874-169.874 0-93.819-76.055-169.874-169.874-169.874z" fill="#333333" /></svg>